<mxfile host="65bd71144e">
    <diagram name="Page-1" id="c4acf3e9-155e-7222-9cf6-157b1a14988f">
        <mxGraphModel dx="2597" dy="906" grid="1" gridSize="10" guides="1" tooltips="1" connect="1" arrows="1" fold="1" page="1" pageScale="1" pageWidth="1100" pageHeight="850" background="#2a252f" math="0" shadow="0">
            <root>
                <mxCell id="0"/>
                <mxCell id="1" parent="0"/>
                <object label="SampleDomain" UMLType="Package" id="3g-wcdet0zAriQwtyhlC-58">
                    <mxCell style="shape=umlFrame;whiteSpace=wrap;html=1;rounded=0;shadow=0;comic=0;labelBackgroundColor=none;strokeWidth=1;fontFamily=Verdana;fontSize=12;align=center;editable=1;movable=0;width=150;height=30;dropTarget=1;container=1;recursiveResize=0;fillColor=#dae8fc;strokeColor=#6c8ebf;fontColor=#000000;fontStyle=1" parent="1" vertex="1">
                        <mxGeometry x="10" y="10" width="2180" height="1580" as="geometry">
                            <mxRectangle x="10" y="10" width="100" height="20" as="alternateBounds"/>
                        </mxGeometry>
                    </mxCell>
                </object>
                <object label="Model" UMLType="Package" id="3g-wcdet0zAriQwtyhlC-57">
                    <mxCell style="shape=umlFrame;whiteSpace=wrap;html=1;rounded=0;shadow=0;comic=0;labelBackgroundColor=none;strokeWidth=1;fontFamily=Verdana;fontSize=12;align=center;editable=1;movable=1;width=150;height=30;dropTarget=1;container=1;recursiveResize=0;fillColor=#dae8fc;strokeColor=#6c8ebf;fontColor=#000000;fontStyle=1" parent="3g-wcdet0zAriQwtyhlC-58" vertex="1">
                        <mxGeometry x="10" y="40" width="2170" height="770" as="geometry">
                            <mxRectangle x="10" y="40" width="100" height="20" as="alternateBounds"/>
                        </mxGeometry>
                    </mxCell>
                </object>
                <object label="&lt;div style=&quot;font-size: 12px;&quot;&gt;SubDomain1&lt;/div&gt;" UMLType="Package" id="17acba5748e5396b-1">
                    <mxCell style="shape=umlFrame;whiteSpace=wrap;html=1;shadow=0;comic=0;labelBackgroundColor=none;strokeWidth=1;fontFamily=Verdana;fontSize=12;align=center;editable=1;movable=1;width=150;height=30;dropTarget=1;container=1;recursiveResize=0;fillColor=#dae8fc;strokeColor=#6c8ebf;rounded=1;connectable=0;fontColor=#000000;fontStyle=1" parent="3g-wcdet0zAriQwtyhlC-57" vertex="1">
                        <mxGeometry x="20" y="40" width="1060" height="720" as="geometry">
                            <mxRectangle x="20" y="40" width="100" height="20" as="alternateBounds"/>
                        </mxGeometry>
                    </mxCell>
                </object>
                <object label="&lt;div style=&quot;font-size: 11px;&quot;&gt;&lt;font style=&quot;font-size: 11px;&quot;&gt;&lt;i style=&quot;font-size: 11px;&quot;&gt;&amp;lt;&amp;lt; enumeration &amp;gt;&amp;gt;&lt;/i&gt;&lt;/font&gt;&lt;br style=&quot;font-size: 11px;&quot;&gt;&lt;/div&gt;&lt;div style=&quot;font-size: 11px;&quot;&gt;&lt;b style=&quot;font-size: 11px;&quot;&gt;Language&lt;/b&gt;&lt;/div&gt;" UMLType="Enumeration" id="v5CykNyz_ZJ7UdN24oP3-23">
                    <mxCell style="swimlane;html=1;fontStyle=0;childLayout=stackLayout;horizontal=1;startSize=50;fillColor=#d5e8d4;horizontalStack=0;resizeParent=1;resizeLast=0;collapsible=1;marginBottom=0;swimlaneFillColor=#ffffff;shadow=0;comic=0;labelBackgroundColor=none;strokeWidth=1;fontFamily=Verdana;fontSize=11;align=center;strokeColor=#82b366;arcSize=10;rounded=1;fontColor=#000000;" parent="17acba5748e5396b-1" vertex="1">
                        <mxGeometry x="890" y="20" width="130" height="128" as="geometry">
                            <mxRectangle x="260" y="80" width="100" height="50" as="alternateBounds"/>
                        </mxGeometry>
                    </mxCell>
                </object>
                <mxCell id="v5CykNyz_ZJ7UdN24oP3-24" value="English" style="text;html=1;strokeColor=none;fillColor=none;align=left;verticalAlign=top;spacingLeft=4;spacingRight=4;whiteSpace=wrap;overflow=hidden;rotatable=0;points=[[0,0.5],[1,0.5]];portConstraint=eastwest;rounded=1;fontColor=#000000;" parent="v5CykNyz_ZJ7UdN24oP3-23" vertex="1">
                    <mxGeometry y="50" width="130" height="26" as="geometry"/>
                </mxCell>
                <mxCell id="v5CykNyz_ZJ7UdN24oP3-27" value="French" style="text;html=1;strokeColor=none;fillColor=none;align=left;verticalAlign=top;spacingLeft=4;spacingRight=4;whiteSpace=wrap;overflow=hidden;rotatable=0;points=[[0,0.5],[1,0.5]];portConstraint=eastwest;rounded=1;fontColor=#000000;" parent="v5CykNyz_ZJ7UdN24oP3-23" vertex="1">
                    <mxGeometry y="76" width="130" height="26" as="geometry"/>
                </mxCell>
                <mxCell id="v5CykNyz_ZJ7UdN24oP3-28" value="Spanish" style="text;html=1;strokeColor=none;fillColor=none;align=left;verticalAlign=top;spacingLeft=4;spacingRight=4;whiteSpace=wrap;overflow=hidden;rotatable=0;points=[[0,0.5],[1,0.5]];portConstraint=eastwest;rounded=1;fontColor=#000000;" parent="v5CykNyz_ZJ7UdN24oP3-23" vertex="1">
                    <mxGeometry y="102" width="130" height="26" as="geometry"/>
                </mxCell>
                <object label="&lt;div style=&quot;font-size: 11px;&quot;&gt;&lt;i style=&quot;font-size: 11px;&quot;&gt;&lt;font style=&quot;font-size: 11px;&quot;&gt;&lt;i style=&quot;font-size: 11px;&quot;&gt;&amp;lt;&amp;lt; abstract &amp;gt;&amp;gt;&lt;/i&gt;&lt;/font&gt;&lt;/i&gt;&lt;/div&gt;&lt;div style=&quot;font-size: 11px;&quot;&gt;&lt;b style=&quot;font-size: 11px;&quot;&gt;&lt;i style=&quot;font-size: 11px;&quot;&gt;TestAbstract&lt;/i&gt;&lt;/b&gt;&lt;/div&gt;" UMLType="Class" Abstract="True" id="7UrE3CHdKnYvW7Xawwn1-34">
                    <mxCell style="swimlane;html=1;fontStyle=0;childLayout=stackLayout;horizontal=1;startSize=46;fillColor=#ffe6cc;horizontalStack=0;resizeParent=1;resizeLast=0;collapsible=1;marginBottom=0;swimlaneFillColor=#ffffff;shadow=0;comic=0;labelBackgroundColor=none;strokeWidth=1;fontFamily=Verdana;fontSize=11;align=center;strokeColor=#d79b00;arcSize=10;glass=0;sketch=0;rounded=1;fontColor=#000000;" parent="17acba5748e5396b-1" vertex="1">
                        <mxGeometry x="650" y="80" width="170" height="110" as="geometry">
                            <mxRectangle x="660" y="104" width="100" height="50" as="alternateBounds"/>
                        </mxGeometry>
                    </mxCell>
                </object>
                <mxCell id="7UrE3CHdKnYvW7Xawwn1-38" value="&lt;&lt; auto &gt;&gt;" style="line;strokeWidth=1;align=center;verticalAlign=middle;spacingTop=0;spacingLeft=0;spacingRight=0;rotatable=0;labelPosition=center;points=[];portConstraint=eastwest;dashed=1;verticalLabelPosition=middle;perimeterSpacing=0;part=0;spacingBottom=0;fillColor=none;labelPadding=0;rounded=1;fontColor=#000000;labelBackgroundColor=#FFFFFF;" parent="7UrE3CHdKnYvW7Xawwn1-34" vertex="1">
                    <mxGeometry y="46" width="170" height="8" as="geometry"/>
                </mxCell>
                <mxCell id="7UrE3CHdKnYvW7Xawwn1-35" value="&lt;div&gt;+ test: int {id}&lt;br&gt;&lt;/div&gt;" style="text;html=1;strokeColor=none;fillColor=none;align=left;verticalAlign=top;spacingLeft=4;spacingRight=4;whiteSpace=wrap;overflow=hidden;rotatable=0;points=[[0,0.5],[1,0.5]];portConstraint=eastwest;rounded=1;fontColor=#000000;" parent="7UrE3CHdKnYvW7Xawwn1-34" vertex="1">
                    <mxGeometry y="54" width="170" height="26" as="geometry"/>
                </mxCell>
                <object label="&lt;div style=&quot;font-size: 11px;&quot;&gt;&lt;font style=&quot;font-size: 11px;&quot;&gt;&lt;i style=&quot;font-size: 11px;&quot;&gt;&amp;lt;&amp;lt; auditable, notifiable &amp;gt;&amp;gt;&lt;/i&gt;&lt;/font&gt;&lt;br style=&quot;font-size: 11px;&quot;&gt;&lt;/div&gt;&lt;div style=&quot;font-size: 11px;&quot;&gt;&lt;b style=&quot;font-size: 11px;&quot;&gt;Department&lt;/b&gt;&lt;/div&gt;" UMLType="Class" id="17acba5748e5396b-20">
                    <mxCell style="swimlane;html=1;fontStyle=0;childLayout=stackLayout;horizontal=1;startSize=50;fillColor=#ffe6cc;horizontalStack=0;resizeParent=1;resizeLast=0;collapsible=1;marginBottom=0;swimlaneFillColor=#ffffff;shadow=0;comic=0;labelBackgroundColor=none;strokeWidth=1;fontFamily=Verdana;fontSize=11;align=center;strokeColor=#d79b00;arcSize=10;rounded=1;fontColor=#000000;" parent="17acba5748e5396b-1" vertex="1">
                        <mxGeometry x="70" y="80" width="170" height="118" as="geometry">
                            <mxRectangle x="260" y="80" width="100" height="50" as="alternateBounds"/>
                        </mxGeometry>
                    </mxCell>
                </object>
                <mxCell id="17acba5748e5396b-21" value="&lt;div&gt;+ departmentName: string&lt;/div&gt;" style="text;html=1;strokeColor=none;fillColor=none;align=left;verticalAlign=top;spacingLeft=4;spacingRight=4;whiteSpace=wrap;overflow=hidden;rotatable=0;points=[[0,0.5],[1,0.5]];portConstraint=eastwest;rounded=1;fontColor=#000000;" parent="17acba5748e5396b-20" vertex="1">
                    <mxGeometry y="50" width="170" height="26" as="geometry"/>
                </mxCell>
                <mxCell id="7UrE3CHdKnYvW7Xawwn1-23" value="&lt;&lt; auto &gt;&gt;" style="line;strokeWidth=1;fillColor=none;align=center;verticalAlign=middle;spacingTop=-1;spacingLeft=0;spacingRight=0;rotatable=0;labelPosition=center;points=[];portConstraint=eastwest;dashed=1;verticalLabelPosition=middle;perimeterSpacing=1;part=0;rounded=1;fontColor=#000000;labelBackgroundColor=#FFFFFF;" parent="17acba5748e5396b-20" vertex="1">
                    <mxGeometry y="76" width="170" height="8" as="geometry"/>
                </mxCell>
                <mxCell id="7UrE3CHdKnYvW7Xawwn1-26" value="&lt;div&gt;+ id: int {id}&lt;/div&gt;" style="text;html=1;strokeColor=none;fillColor=none;align=left;verticalAlign=top;spacingLeft=4;spacingRight=4;whiteSpace=wrap;overflow=hidden;rotatable=0;points=[[0,0.5],[1,0.5]];portConstraint=eastwest;rounded=1;fontColor=#000000;" parent="17acba5748e5396b-20" vertex="1">
                    <mxGeometry y="84" width="170" height="26" as="geometry"/>
                </mxCell>
                <object label="&lt;b style=&quot;font-size: 11px;&quot;&gt;Location&lt;/b&gt;" UMLType="Class" id="7UrE3CHdKnYvW7Xawwn1-30">
                    <mxCell style="swimlane;html=1;fontStyle=0;childLayout=stackLayout;horizontal=1;startSize=30;fillColor=#ffe6cc;horizontalStack=0;resizeParent=1;resizeLast=0;collapsible=1;marginBottom=0;swimlaneFillColor=#ffffff;shadow=0;comic=0;labelBackgroundColor=none;strokeWidth=1;fontFamily=Verdana;fontSize=11;align=center;strokeColor=#d79b00;arcSize=10;rounded=1;fontColor=#000000;" parent="17acba5748e5396b-1" vertex="1">
                        <mxGeometry x="370" y="84" width="170" height="110" as="geometry">
                            <mxRectangle x="260" y="80" width="100" height="50" as="alternateBounds"/>
                        </mxGeometry>
                    </mxCell>
                </object>
                <mxCell id="7UrE3CHdKnYvW7Xawwn1-31" value="&lt;div&gt;+ name: string&lt;/div&gt;" style="text;html=1;strokeColor=none;fillColor=none;align=left;verticalAlign=top;spacingLeft=4;spacingRight=4;whiteSpace=wrap;overflow=hidden;rotatable=0;points=[[0,0.5],[1,0.5]];portConstraint=eastwest;rounded=1;fontColor=#000000;" parent="7UrE3CHdKnYvW7Xawwn1-30" vertex="1">
                    <mxGeometry y="30" width="170" height="26" as="geometry"/>
                </mxCell>
                <object label="Extends" UMLType="Generalization" id="7UrE3CHdKnYvW7Xawwn1-39">
                    <mxCell style="endArrow=block;endSize=16;endFill=0;html=1;fontColor=#FFFFFF;" parent="17acba5748e5396b-1" source="7UrE3CHdKnYvW7Xawwn1-30" target="7UrE3CHdKnYvW7Xawwn1-34" edge="1">
                        <mxGeometry width="160" relative="1" as="geometry">
                            <mxPoint x="540" y="139" as="sourcePoint"/>
                            <mxPoint x="640" y="139" as="targetPoint"/>
                        </mxGeometry>
                    </mxCell>
                </object>
                <object label="" UMLType="Association" id="7UrE3CHdKnYvW7Xawwn1-13">
                    <mxCell style="verticalAlign=bottom;html=1;endArrow=open;edgeStyle=orthogonalEdgeStyle;comic=0;endFill=0;endSize=11;fontColor=#000000;" parent="17acba5748e5396b-1" source="17acba5748e5396b-20" target="7UrE3CHdKnYvW7Xawwn1-30" edge="1">
                        <mxGeometry relative="1" as="geometry">
                            <mxPoint x="210" y="350" as="sourcePoint"/>
                            <mxPoint x="560" y="122" as="targetPoint"/>
                        </mxGeometry>
                    </mxCell>
                </object>
                <object label="1" UMLType="SourceMultiplicity" id="7UrE3CHdKnYvW7Xawwn1-14">
                    <mxCell style="resizable=0;html=1;align=left;verticalAlign=top;labelBackgroundColor=none;fontSize=10;rounded=1;fontColor=default;" parent="7UrE3CHdKnYvW7Xawwn1-13" connectable="0" vertex="1">
                        <mxGeometry x="-1" relative="1" as="geometry"/>
                    </mxCell>
                </object>
                <mxCell id="7UrE3CHdKnYvW7Xawwn1-15" value="" style="resizable=0;html=1;align=left;verticalAlign=bottom;labelBackgroundColor=none;fontSize=10;rounded=1;fontColor=#000000;" parent="7UrE3CHdKnYvW7Xawwn1-13" connectable="0" vertex="1">
                    <mxGeometry x="-1" relative="1" as="geometry"/>
                </mxCell>
                <object label="&lt;div&gt;0..*&lt;/div&gt;" UMLType="DestinationMultiplicity" id="7UrE3CHdKnYvW7Xawwn1-16">
                    <mxCell style="resizable=0;html=1;align=right;verticalAlign=top;labelBackgroundColor=none;fontSize=10;rounded=1;fontColor=default;" parent="7UrE3CHdKnYvW7Xawwn1-13" connectable="0" vertex="1">
                        <mxGeometry x="0.9" relative="1" as="geometry"/>
                    </mxCell>
                </object>
                <mxCell id="7UrE3CHdKnYvW7Xawwn1-17" value="" style="resizable=0;html=1;align=right;verticalAlign=bottom;labelBackgroundColor=none;fontSize=10;rounded=1;fontColor=#000000;" parent="7UrE3CHdKnYvW7Xawwn1-13" connectable="0" vertex="1">
                    <mxGeometry x="0.9" relative="1" as="geometry"/>
                </mxCell>
                <object label="&lt;b style=&quot;font-size: 11px;&quot;&gt;Country&lt;/b&gt;" UMLType="Class" id="v5CykNyz_ZJ7UdN24oP3-29">
                    <mxCell style="swimlane;html=1;fontStyle=0;childLayout=stackLayout;horizontal=1;startSize=30;fillColor=#ffe6cc;horizontalStack=0;resizeParent=1;resizeLast=0;collapsible=1;marginBottom=0;swimlaneFillColor=#ffffff;shadow=0;comic=0;labelBackgroundColor=none;strokeWidth=1;fontFamily=Verdana;fontSize=11;align=center;strokeColor=#d79b00;arcSize=10;rounded=1;fontColor=#000000;" parent="17acba5748e5396b-1" vertex="1">
                        <mxGeometry x="370" y="314" width="170" height="110" as="geometry">
                            <mxRectangle x="260" y="80" width="100" height="50" as="alternateBounds"/>
                        </mxGeometry>
                    </mxCell>
                </object>
                <mxCell id="v5CykNyz_ZJ7UdN24oP3-30" value="&lt;div&gt;+ name: string {id}&lt;br&gt;&lt;/div&gt;" style="text;html=1;strokeColor=none;fillColor=none;align=left;verticalAlign=top;spacingLeft=4;spacingRight=4;whiteSpace=wrap;overflow=hidden;rotatable=0;points=[[0,0.5],[1,0.5]];portConstraint=eastwest;rounded=1;fontColor=#000000;" parent="v5CykNyz_ZJ7UdN24oP3-29" vertex="1">
                    <mxGeometry y="30" width="170" height="26" as="geometry"/>
                </mxCell>
                <object label="&lt;div style=&quot;font-size: 11px;&quot;&gt;&lt;b style=&quot;font-size: 11px;&quot;&gt;Employee&lt;/b&gt;&lt;/div&gt;" UMLType="Class" id="v5CykNyz_ZJ7UdN24oP3-2">
                    <mxCell style="swimlane;html=1;fontStyle=0;childLayout=stackLayout;horizontal=1;startSize=30;fillColor=#ffe6cc;horizontalStack=0;resizeParent=1;resizeLast=0;collapsible=1;marginBottom=0;swimlaneFillColor=#ffffff;shadow=0;comic=0;labelBackgroundColor=none;strokeWidth=1;fontFamily=Verdana;fontSize=11;align=center;strokeColor=#d79b00;arcSize=10;rounded=1;fontColor=#000000;" parent="17acba5748e5396b-1" vertex="1">
                        <mxGeometry x="70" y="300" width="170" height="136" as="geometry">
                            <mxRectangle x="260" y="80" width="100" height="50" as="alternateBounds"/>
                        </mxGeometry>
                    </mxCell>
                </object>
                <mxCell id="v5CykNyz_ZJ7UdN24oP3-3" value="&lt;div&gt;+ firstName: string&lt;/div&gt;" style="text;html=1;strokeColor=none;fillColor=none;align=left;verticalAlign=top;spacingLeft=4;spacingRight=4;whiteSpace=wrap;overflow=hidden;rotatable=0;points=[[0,0.5],[1,0.5]];portConstraint=eastwest;rounded=1;fontColor=#000000;" parent="v5CykNyz_ZJ7UdN24oP3-2" vertex="1">
                    <mxGeometry y="30" width="170" height="26" as="geometry"/>
                </mxCell>
                <mxCell id="v5CykNyz_ZJ7UdN24oP3-6" value="&lt;div&gt;+ lastName: string&lt;/div&gt;" style="text;html=1;strokeColor=none;fillColor=none;align=left;verticalAlign=top;spacingLeft=4;spacingRight=4;whiteSpace=wrap;overflow=hidden;rotatable=0;points=[[0,0.5],[1,0.5]];portConstraint=eastwest;rounded=1;fontColor=#000000;" parent="v5CykNyz_ZJ7UdN24oP3-2" vertex="1">
                    <mxGeometry y="56" width="170" height="26" as="geometry"/>
                </mxCell>
                <mxCell id="v5CykNyz_ZJ7UdN24oP3-4" value="&lt;&lt; auto &gt;&gt;" style="line;strokeWidth=1;fillColor=none;align=center;verticalAlign=middle;spacingTop=-1;spacingLeft=0;spacingRight=0;rotatable=0;labelPosition=center;points=[];portConstraint=eastwest;dashed=1;verticalLabelPosition=middle;perimeterSpacing=1;part=0;rounded=1;fontColor=#000000;labelBackgroundColor=#FFFFFF;" parent="v5CykNyz_ZJ7UdN24oP3-2" vertex="1">
                    <mxGeometry y="82" width="170" height="8" as="geometry"/>
                </mxCell>
                <mxCell id="v5CykNyz_ZJ7UdN24oP3-5" value="&lt;div&gt;+ id: int {id}&lt;/div&gt;" style="text;html=1;strokeColor=none;fillColor=none;align=left;verticalAlign=top;spacingLeft=4;spacingRight=4;whiteSpace=wrap;overflow=hidden;rotatable=0;points=[[0,0.5],[1,0.5]];portConstraint=eastwest;rounded=1;fontColor=#000000;" parent="v5CykNyz_ZJ7UdN24oP3-2" vertex="1">
                    <mxGeometry y="90" width="170" height="26" as="geometry"/>
                </mxCell>
                <object label="" UMLType="Association" id="X6_GDUgpjBKw1VpaA0fO-1">
                    <mxCell style="verticalAlign=bottom;html=1;endArrow=open;edgeStyle=orthogonalEdgeStyle;comic=0;endFill=0;endSize=11;fontColor=#000000;" parent="17acba5748e5396b-1" source="17acba5748e5396b-20" target="v5CykNyz_ZJ7UdN24oP3-2" edge="1">
                        <mxGeometry relative="1" as="geometry">
                            <mxPoint x="180" y="230" as="sourcePoint"/>
                            <mxPoint x="310" y="230" as="targetPoint"/>
                        </mxGeometry>
                    </mxCell>
                </object>
                <object label="1" UMLType="SourceMultiplicity" id="X6_GDUgpjBKw1VpaA0fO-2">
                    <mxCell style="resizable=0;html=1;align=left;verticalAlign=top;labelBackgroundColor=none;fontSize=10;rounded=1;fontColor=default;" parent="X6_GDUgpjBKw1VpaA0fO-1" connectable="0" vertex="1">
                        <mxGeometry x="-1" relative="1" as="geometry"/>
                    </mxCell>
                </object>
                <mxCell id="X6_GDUgpjBKw1VpaA0fO-3" value="" style="resizable=0;html=1;align=left;verticalAlign=bottom;labelBackgroundColor=none;fontSize=10;rounded=1;fontColor=#000000;" parent="X6_GDUgpjBKw1VpaA0fO-1" connectable="0" vertex="1">
                    <mxGeometry x="-1" relative="1" as="geometry"/>
                </mxCell>
                <object label="&lt;div&gt;0..*&lt;/div&gt;" UMLType="DestinationMultiplicity" id="X6_GDUgpjBKw1VpaA0fO-4">
                    <mxCell style="resizable=0;html=1;align=right;verticalAlign=top;labelBackgroundColor=none;fontSize=10;rounded=1;fontColor=default;" parent="X6_GDUgpjBKw1VpaA0fO-1" connectable="0" vertex="1">
                        <mxGeometry x="0.9" relative="1" as="geometry">
                            <mxPoint x="25" y="-24.8" as="offset"/>
                        </mxGeometry>
                    </mxCell>
                </object>
                <mxCell id="X6_GDUgpjBKw1VpaA0fO-5" value="" style="resizable=0;html=1;align=right;verticalAlign=bottom;labelBackgroundColor=none;fontSize=10;rounded=1;fontColor=#000000;" parent="X6_GDUgpjBKw1VpaA0fO-1" connectable="0" vertex="1">
                    <mxGeometry x="0.9" relative="1" as="geometry"/>
                </mxCell>
                <object label="" UMLType="Association" id="X6_GDUgpjBKw1VpaA0fO-6">
                    <mxCell style="verticalAlign=bottom;html=1;endArrow=open;edgeStyle=orthogonalEdgeStyle;comic=0;endFill=0;endSize=11;fontColor=#000000;" parent="17acba5748e5396b-1" source="v5CykNyz_ZJ7UdN24oP3-12" target="v5CykNyz_ZJ7UdN24oP3-2" edge="1">
                        <mxGeometry relative="1" as="geometry">
                            <mxPoint x="250" y="460" as="sourcePoint"/>
                            <mxPoint x="380" y="460" as="targetPoint"/>
                        </mxGeometry>
                    </mxCell>
                </object>
                <object label="0..*" UMLType="SourceMultiplicity" id="X6_GDUgpjBKw1VpaA0fO-7">
                    <mxCell style="resizable=0;html=1;align=left;verticalAlign=top;labelBackgroundColor=none;fontSize=10;rounded=1;fontColor=default;" parent="X6_GDUgpjBKw1VpaA0fO-6" connectable="0" vertex="1">
                        <mxGeometry x="-1" relative="1" as="geometry">
                            <mxPoint x="5" y="-30" as="offset"/>
                        </mxGeometry>
                    </mxCell>
                </object>
                <mxCell id="X6_GDUgpjBKw1VpaA0fO-8" value="" style="resizable=0;html=1;align=left;verticalAlign=bottom;labelBackgroundColor=none;fontSize=10;rounded=1;fontColor=#000000;" parent="X6_GDUgpjBKw1VpaA0fO-6" connectable="0" vertex="1">
                    <mxGeometry x="-1" relative="1" as="geometry"/>
                </mxCell>
                <object label="1" UMLType="DestinationMultiplicity" id="X6_GDUgpjBKw1VpaA0fO-9">
                    <mxCell style="resizable=0;html=1;align=right;verticalAlign=top;labelBackgroundColor=none;fontSize=10;rounded=1;fontColor=default;" parent="X6_GDUgpjBKw1VpaA0fO-6" connectable="0" vertex="1">
                        <mxGeometry x="0.9" relative="1" as="geometry">
                            <mxPoint x="15" as="offset"/>
                        </mxGeometry>
                    </mxCell>
                </object>
                <mxCell id="X6_GDUgpjBKw1VpaA0fO-10" value="" style="resizable=0;html=1;align=right;verticalAlign=bottom;labelBackgroundColor=none;fontSize=10;rounded=1;fontColor=#000000;" parent="X6_GDUgpjBKw1VpaA0fO-6" connectable="0" vertex="1">
                    <mxGeometry x="0.9" relative="1" as="geometry"/>
                </mxCell>
                <object label="&lt;b style=&quot;font-size: 11px;&quot;&gt;JobHistory&lt;/b&gt;" UMLType="Class" id="v5CykNyz_ZJ7UdN24oP3-12">
                    <mxCell style="swimlane;html=1;fontStyle=0;childLayout=stackLayout;horizontal=1;startSize=30;fillColor=#ffe6cc;horizontalStack=0;resizeParent=1;resizeLast=0;collapsible=1;marginBottom=0;swimlaneFillColor=#ffffff;shadow=0;comic=0;labelBackgroundColor=none;strokeWidth=1;fontFamily=Verdana;fontSize=11;align=center;strokeColor=#d79b00;arcSize=10;rounded=1;labelBorderColor=none;fontColor=#000000;" parent="17acba5748e5396b-1" vertex="1">
                        <mxGeometry x="70" y="530" width="170" height="144" as="geometry">
                            <mxRectangle x="260" y="80" width="100" height="50" as="alternateBounds"/>
                        </mxGeometry>
                    </mxCell>
                </object>
                <mxCell id="v5CykNyz_ZJ7UdN24oP3-13" value="&lt;div&gt;+ start_date: date&lt;br&gt;&lt;/div&gt;" style="text;html=1;strokeColor=none;fillColor=none;align=left;verticalAlign=top;spacingLeft=4;spacingRight=4;whiteSpace=wrap;overflow=hidden;rotatable=0;points=[[0,0.5],[1,0.5]];portConstraint=eastwest;rounded=1;fontColor=#000000;" parent="v5CykNyz_ZJ7UdN24oP3-12" vertex="1">
                    <mxGeometry y="30" width="170" height="26" as="geometry"/>
                </mxCell>
                <mxCell id="v5CykNyz_ZJ7UdN24oP3-15" value="&lt;&lt; auto &gt;&gt;" style="line;strokeWidth=1;fillColor=none;align=center;verticalAlign=middle;spacingTop=-1;spacingLeft=0;spacingRight=0;rotatable=0;labelPosition=center;points=[];portConstraint=eastwest;dashed=1;verticalLabelPosition=middle;perimeterSpacing=1;part=0;rounded=1;fontColor=#000000;labelBackgroundColor=#FFFFFF;" parent="v5CykNyz_ZJ7UdN24oP3-12" vertex="1">
                    <mxGeometry y="56" width="170" height="8" as="geometry"/>
                </mxCell>
                <mxCell id="v5CykNyz_ZJ7UdN24oP3-16" value="&lt;div&gt;+ id: int {id}&lt;/div&gt;" style="text;html=1;strokeColor=none;fillColor=none;align=left;verticalAlign=top;spacingLeft=4;spacingRight=4;whiteSpace=wrap;overflow=hidden;rotatable=0;points=[[0,0.5],[1,0.5]];portConstraint=eastwest;rounded=1;fontColor=#000000;" parent="v5CykNyz_ZJ7UdN24oP3-12" vertex="1">
                    <mxGeometry y="64" width="170" height="26" as="geometry"/>
                </mxCell>
                <mxCell id="v5CykNyz_ZJ7UdN24oP3-22" value="&lt;&lt; routable &gt;&gt;" style="line;strokeWidth=1;fillColor=none;align=center;verticalAlign=middle;spacingTop=-1;spacingLeft=0;spacingRight=0;rotatable=0;labelPosition=center;points=[];portConstraint=eastwest;dashed=1;verticalLabelPosition=middle;perimeterSpacing=1;part=0;rounded=1;fontColor=#000000;labelBackgroundColor=#FFFFFF;" parent="v5CykNyz_ZJ7UdN24oP3-12" vertex="1">
                    <mxGeometry y="90" width="170" height="8" as="geometry"/>
                </mxCell>
                <mxCell id="v5CykNyz_ZJ7UdN24oP3-14" value="&lt;div&gt;+ language: Language&lt;/div&gt;" style="text;html=1;strokeColor=none;fillColor=none;align=left;verticalAlign=top;spacingLeft=4;spacingRight=4;whiteSpace=wrap;overflow=hidden;rotatable=0;points=[[0,0.5],[1,0.5]];portConstraint=eastwest;rounded=1;fontColor=#000000;" parent="v5CykNyz_ZJ7UdN24oP3-12" vertex="1">
                    <mxGeometry y="98" width="170" height="26" as="geometry"/>
                </mxCell>
                <object label="" UMLType="Association" id="X6_GDUgpjBKw1VpaA0fO-11">
                    <mxCell style="verticalAlign=bottom;html=1;endArrow=open;edgeStyle=orthogonalEdgeStyle;comic=0;endFill=0;endSize=11;fontColor=#000000;" parent="17acba5748e5396b-1" source="7UrE3CHdKnYvW7Xawwn1-30" target="v5CykNyz_ZJ7UdN24oP3-29" edge="1">
                        <mxGeometry relative="1" as="geometry">
                            <mxPoint x="460" y="220" as="sourcePoint"/>
                            <mxPoint x="590" y="220" as="targetPoint"/>
                        </mxGeometry>
                    </mxCell>
                </object>
                <object label="1" UMLType="SourceMultiplicity" id="X6_GDUgpjBKw1VpaA0fO-12">
                    <mxCell style="resizable=0;html=1;align=left;verticalAlign=top;labelBackgroundColor=none;fontSize=10;rounded=1;fontColor=default;" parent="X6_GDUgpjBKw1VpaA0fO-11" connectable="0" vertex="1">
                        <mxGeometry x="-1" relative="1" as="geometry">
                            <mxPoint x="5" as="offset"/>
                        </mxGeometry>
                    </mxCell>
                </object>
                <mxCell id="X6_GDUgpjBKw1VpaA0fO-13" value="" style="resizable=0;html=1;align=left;verticalAlign=bottom;labelBackgroundColor=none;fontSize=10;rounded=1;fontColor=#000000;" parent="X6_GDUgpjBKw1VpaA0fO-11" connectable="0" vertex="1">
                    <mxGeometry x="-1" relative="1" as="geometry"/>
                </mxCell>
                <object label="1" UMLType="DestinationMultiplicity" id="X6_GDUgpjBKw1VpaA0fO-14">
                    <mxCell style="resizable=0;html=1;align=right;verticalAlign=top;labelBackgroundColor=none;fontSize=10;rounded=1;fontColor=default;" parent="X6_GDUgpjBKw1VpaA0fO-11" connectable="0" vertex="1">
                        <mxGeometry x="0.9" relative="1" as="geometry">
                            <mxPoint x="15" y="-37.2" as="offset"/>
                        </mxGeometry>
                    </mxCell>
                </object>
                <mxCell id="X6_GDUgpjBKw1VpaA0fO-15" value="" style="resizable=0;html=1;align=right;verticalAlign=bottom;labelBackgroundColor=none;fontSize=10;rounded=1;fontColor=#000000;" parent="X6_GDUgpjBKw1VpaA0fO-11" connectable="0" vertex="1">
                    <mxGeometry x="0.9" relative="1" as="geometry"/>
                </mxCell>
                <object label="&lt;div style=&quot;font-size: 12px;&quot;&gt;SubDomain2&lt;/div&gt;" UMLType="Package" id="3g-wcdet0zAriQwtyhlC-60">
                    <mxCell style="shape=umlFrame;whiteSpace=wrap;html=1;rounded=0;shadow=0;comic=0;labelBackgroundColor=none;strokeWidth=1;fontFamily=Verdana;fontSize=12;align=center;editable=1;movable=0;width=150;height=30;dropTarget=1;container=1;recursiveResize=0;fillColor=#dae8fc;strokeColor=#6c8ebf;connectable=0;fontColor=#000000;fontStyle=1" parent="3g-wcdet0zAriQwtyhlC-57" vertex="1">
                        <mxGeometry x="1110" y="40" width="1060" height="720" as="geometry">
                            <mxRectangle x="1110" y="40" width="100" height="20" as="alternateBounds"/>
                        </mxGeometry>
                    </mxCell>
                </object>
                <object label="&lt;b&gt;Region&lt;/b&gt;" UMLType="Class" id="v5CykNyz_ZJ7UdN24oP3-31">
                    <mxCell style="swimlane;html=1;fontStyle=0;childLayout=stackLayout;horizontal=1;startSize=30;fillColor=#ffe6cc;horizontalStack=0;resizeParent=1;resizeLast=0;collapsible=1;marginBottom=0;swimlaneFillColor=#ffffff;shadow=0;comic=0;labelBackgroundColor=none;strokeWidth=1;fontFamily=Verdana;fontSize=10;align=center;strokeColor=#d79b00;arcSize=10;rounded=1;fontColor=#000000;" parent="3g-wcdet0zAriQwtyhlC-60" vertex="1">
                        <mxGeometry x="100" y="313" width="170" height="110" as="geometry">
                            <mxRectangle x="260" y="80" width="100" height="50" as="alternateBounds"/>
                        </mxGeometry>
                    </mxCell>
                </object>
                <mxCell id="v5CykNyz_ZJ7UdN24oP3-32" value="&lt;div&gt;+ name: string {id}&lt;br&gt;&lt;/div&gt;" style="text;html=1;strokeColor=none;fillColor=none;align=left;verticalAlign=top;spacingLeft=4;spacingRight=4;whiteSpace=wrap;overflow=hidden;rotatable=0;points=[[0,0.5],[1,0.5]];portConstraint=eastwest;rounded=1;fontColor=#000000;" parent="v5CykNyz_ZJ7UdN24oP3-31" vertex="1">
                    <mxGeometry y="30" width="170" height="26" as="geometry"/>
                </mxCell>
                <object label="" UMLType="Association" id="X6_GDUgpjBKw1VpaA0fO-16">
                    <mxCell style="verticalAlign=bottom;html=1;endArrow=open;edgeStyle=orthogonalEdgeStyle;comic=0;endFill=0;endSize=11;noJump=0;fontColor=#000000;" parent="3g-wcdet0zAriQwtyhlC-57" source="v5CykNyz_ZJ7UdN24oP3-29" target="v5CykNyz_ZJ7UdN24oP3-31" edge="1">
                        <mxGeometry relative="1" as="geometry">
                            <mxPoint x="560" y="320" as="sourcePoint"/>
                            <mxPoint x="690" y="320" as="targetPoint"/>
                        </mxGeometry>
                    </mxCell>
                </object>
                <object label="1" UMLType="SourceMultiplicity" id="X6_GDUgpjBKw1VpaA0fO-17">
                    <mxCell style="resizable=0;html=1;align=left;verticalAlign=top;labelBackgroundColor=none;fontSize=10;rounded=1;fontColor=#000000;" parent="X6_GDUgpjBKw1VpaA0fO-16" connectable="0" vertex="1">
                        <mxGeometry x="-1" relative="1" as="geometry"/>
                    </mxCell>
                </object>
                <mxCell id="X6_GDUgpjBKw1VpaA0fO-18" value="" style="resizable=0;html=1;align=left;verticalAlign=bottom;labelBackgroundColor=none;fontSize=10;rounded=1;fontColor=#000000;" parent="X6_GDUgpjBKw1VpaA0fO-16" connectable="0" vertex="1">
                    <mxGeometry x="-1" relative="1" as="geometry"/>
                </mxCell>
                <object label="&lt;div&gt;0..*&lt;/div&gt;" UMLType="DestinationMultiplicity" id="X6_GDUgpjBKw1VpaA0fO-19">
                    <mxCell style="resizable=0;html=1;align=right;verticalAlign=top;labelBackgroundColor=none;fontSize=10;rounded=1;fontColor=default;" parent="X6_GDUgpjBKw1VpaA0fO-16" connectable="0" vertex="1">
                        <mxGeometry x="0.9" relative="1" as="geometry"/>
                    </mxCell>
                </object>
                <mxCell id="X6_GDUgpjBKw1VpaA0fO-20" value="" style="resizable=0;html=1;align=right;verticalAlign=bottom;labelBackgroundColor=none;fontSize=10;rounded=1;fontColor=#000000;" parent="X6_GDUgpjBKw1VpaA0fO-16" connectable="0" vertex="1">
                    <mxGeometry x="0.9" relative="1" as="geometry"/>
                </mxCell>
                <object label="Test" UMLType="Package" id="3g-wcdet0zAriQwtyhlC-59">
                    <mxCell style="shape=umlFrame;whiteSpace=wrap;html=1;rounded=0;shadow=0;comic=0;labelBackgroundColor=none;strokeWidth=1;fontFamily=Verdana;fontSize=10;align=center;editable=1;movable=1;width=150;height=30;dropTarget=1;container=1;recursiveResize=0;fillColor=#dae8fc;strokeColor=#6c8ebf;fontColor=#000000;" parent="3g-wcdet0zAriQwtyhlC-58" vertex="1" collapsed="1">
                        <mxGeometry x="10" y="860" width="100" height="20" as="geometry">
                            <mxRectangle x="10" y="860" width="1060" height="720" as="alternateBounds"/>
                        </mxGeometry>
                    </mxCell>
                </object>
            </root>
        </mxGraphModel>
    </diagram>
</mxfile>